<mxfile host="app.diagrams.net" modified="2023-03-05T19:32:02.634Z" agent="5.0 (Windows NT 10.0; Win64; x64) AppleWebKit/537.36 (KHTML, like Gecko) Chrome/110.0.0.0 Safari/537.36" etag="MTDR-3BG9hZzpAb1ytFK" version="21.0.2" type="github">
  <diagram name="Seite-1" id="9gijwK3XQb2A8rQUUI8I">
    <mxGraphModel dx="1050" dy="541" grid="1" gridSize="10" guides="1" tooltips="1" connect="1" arrows="1" fold="1" page="1" pageScale="1" pageWidth="827" pageHeight="1169" math="0" shadow="0">
      <root>
        <mxCell id="0" />
        <mxCell id="1" parent="0" />
        <mxCell id="qyT7iXL2j5w7sg0V3OjS-1" value="" style="shape=image;imageAspect=0;aspect=fixed;verticalLabelPosition=bottom;verticalAlign=top;image=data:image/png,iVBORw0KGgoAAAANSUhEUgAAAc4AAALDCAIAAAAT8nekAAAAAXNSR0IArs4c6QAAAARnQU1BAACxjwv8YQUAAAAJcEhZcwAAEnQAABJ0Ad5mH3gAAAASdEVYdFNvZnR3YXJlAEdyZWVuc2hvdF5VCAUAACixSURBVHhe7d1BiCRZeh/wXhkxu2qwYQedFy2LoVXUNhoY+biCkfswIBoJZBhDwxhmYC59aEHfFrvB9Iq9tA4FOzDYhz4s2kuzIJ/q4IOhD2YRNOhWaLAPjS8yjW2BC2wjyl9O5GZVR2VGRlZnZLzvvd+Px0x1VWVXdMYX/3oR78vIWxcATEzUAkxO1AJMTtQCTE7UAkxO1AJMTtQCTE7UAkxO1AJMbrKoff364sWLi5OTi8ePF/89Pb1482b5JYByRDRFQHVh9fTpIrgivvZtgqiN7X706OLWrTXj2TOBC5Ti/HwRSr2Y6kaE2F4Dd99RGxt3dNTf6Kvj+HiK3xgAu4kgunu3H1Crcfv2xZ07Fy9fLr/5ne01amPTY+N6W3x9RNqa2wIzivls5GzkaS+dro89TQ33GrUPHoza9BgxOQeYy5Mn/VDaND7+ePmQd7NL1MZU9OxsOa579aq/icPDZQRuJAqnq0EVxA1FlPXiaHisvYywCsNx5+jjojZ+0r17/R8fvxauFvvJSf8bhseLF8sHwghxwhcl01sIiD9G3cWXYAdRSVfLaOt4+nT5wBDBen0lLeJxW6Bti9r4ex886P+9V8fqB3zxRf9Lw8M1BEaLqcPxcb+CViO+FOdUMFZEZ6+GhsdHHy0feHra/9LVEVG5+VRrMGq7K8e9v+76eP588c2xNb3PD4/PPvvmZ8AWkbO92lk7pC1jPX7cr56tI2ydC9++vQjMDdcTBqN2U3vs9RFlHtHZ++TwePhw+VNgs/h1PzCfvTqOjkZeNKN5u0ZtlODIX/gxYm67zuao3WmZ6+OPd1jR68bJyfIHwWZxytQrnIGhphhlp6qKEfPC4euovbFuGW1z1O4anb/8Zf8zw8P5HiMMvyCmN+7cWT4Khuw0j4zx85/3PzM8fvzj5Q+6YnPUjjxtW42//MsdHnLv3vKnwGavX/cLZ+uI8zzYLk7Ee6WzacRv+7/6q/4nt45rNkdt75Fbx4sXi2lz75ObhiktI4y/PrYaopZRxtfW6enOzWExrtlr1IYx3bX7e1kxdRO1TGjM1LC7/F9i1Ib4B2y6wKYBkl2IWqYVcbTpsmeEWMxnO9NG7a7LYldr/Px8sZUPH66++l9vPfxvPzv1sh52tdOyWAzYzfn53/370wioyxqK4Ipsvdo5uOuiwbp+r821Of7C661b//CjX7+aYoP4ru6FDrCTMVekVuPZs+WjYLyu9Wt4HvgPfzh6GS3Gumukg9OAyOZxd+r6d3derubaaz1+fHH//vJjGC/mFuMntl7CwA189tmW165GuP3F0bj+sAjMDXcCG4zamDaPuKXj+b951r1SLPJ0U6131zocCdzAyPOrdTMJ2CIms1E8m865I7K6V5ZFxP3vfzviDOvOnU23Qdh2cSsedv2eXlfHr1+g04Xphx9eXkq+qlvf+M//8XzxkZULdjSw1NoNOcvOIqpOT//mP/3PqJ+1q/Xx9Qi0+OpqyX/Ly8xiYrohZ8OIdYSI/fhR1yv94cNeaMZPWT+9/eZv+Pt/8nZkP3jg+GC8qKi17wLl/erYzZdfXnz/+1dr6H/dunfx+edXy+jqZLYfnhF6Vxb8lyPiMUJy8HLviKhdiZ8R4R9RHx9sru7+9HagnSJGBK4DhdGimKP6utqJDwZrG94WUfPBB5fh0xvvvbdI4bWT2evir4r6i2+NfIsPRtglakdbTW//w78ccZlt823HYK2ucGAHETLvv38ZOxvG3/zzL+P/ayaz72zCgj19/ub/3Bq3eLyuDQ026aoGdjAwn317/PVPf7V8yF5NWbA7vQjCdVtG60oGxvryy8uoGR7f+tYilCcwWcHGdL33bxgeJraM1pUMjPUHf3AZNWPG118vH7g/kxXsqx3vCBkDxlEv7GYVMiPHN+tj+zVZwXaNCDuNcQt50NULjLLrGXaMx4+Xj90fUUs+Xb3AKF9/fRkyI0emqH25w91qlkOTJON09QJjrUJm5MgUta93vO2Yt8BhtK5kYKzvfe8yasaMX+2/32vKgh3/7j23bv2Xfz3wygx4S1c1MNJ//1c/WUXN9vH++8uH7dWUBTu6CeH/fvf4n9067985Ya2zb+5W46pu27rCoWkx8Txd3C9m+ccNIlIiWO7fenPxj769CpwtY4L2gzBxwY68sfOrV/07J/REtv74x289JMaTJzK3Td3+p0UREPfvX4ZAN374w7X5GN97eTeD+MPVh2wak91Xe/qCHU7bo6PV68TW3xjs/Hzjq866G+l6d4f2dPuf5nz++XLfrx0ffLAKjm4yG597624Gv/jF4p4yVx/SG1O+f8FBCvbVq/XXbSNDr10yeGt6Gzn76advPWTt8D4njel2O2350z+9POQ3je9/PyLlrclsz9dfr5kUx/jt314E8ZQOWLDxyyUmsPGvjxHhey1kV1bT27/+ePBGvFfHIphpRbfPaUjk4OpgHxx//4P78f8tt+aK8Im/MOa9MX7ykyn6Da4rt2BPn+/yGo/jY2257ej2OQ359uhFrcluzfWOCi7Y4feWuD7cG6wZ3Q6nFaOntMvx+efLB5ak4IK9/q4Sw+PX73JG9bodTiuGV8Ouj+99b/nAkhRcsANvk7N2PHq0fCC163Y4rfj93788zEeO8hRcsL3nbuuIWTBt6HY4rRC10/rii/7TNzyePl0+kNp1O5xWjGnzujq++93lA0tScMHuuiym36sZ3Q6nFePfrqYbEc3lKbhgz379JtQjx+ZGXSrT7XBaEYf28Ku8eqPIWVfZBfvoUf9J3DBeP/by3IZ0u512/I9/8c3LbMeMad6E8d2VXbDn5xd37/afymvj7/7pp2NvDEYVuj1PC+Kg7u5m8P/+8Q+WO37T+Na3Lr7znSnegXEvii/Y168vPvmk/5xeHTHzPT9/684J1K7b81TvrbsZROjGjLXb92vH++8f5iW2N5OhYGNuG8/09Tbbe/euvkJsdecE09vqdfufiq0ms/27GXz55SJSuwpYjffeK/+wT1WwZ2eLX3MRu5GwG24mYXrbgu74olZvTWbXitlrZG7E609+kuVQr7BgTW+rJ2prtXEym1+1BWt6WzFRW6Xtk9nMai5Y09taidrKVDyZXam/YE1v6yNqa1L3ZHaliYI1va2MqK1DC5PZlYYK1vS2GqK2Ao1MZlfaKljT2zqI2tSamsyutFiwprfZidq8WpvMrjRasCOnt/FtZ2fL4V0iC7G641t8QAniCIoAXY1N2pzMrjQ9N9g0ve1eCXx0tDykV+PJkxZLpBBxoJ6crNkp8cmBX5ZM6le/urh/v79H1r5KNg6xNiezK62fhl2f3sZnNt1N7PbtxX+brZUZvXy5JmRXI77k7ZIPb/iG3d/+9vLeL41PZldc8VpYTW9//vOLO3cuy2XTeO7uuAf06lX/+V87pO0hjXljhJjexjlH45PZFVG7tJre/uZvXtbKwHCh8DBiTjQwn7064ttcSTiM09P+kz8wHjxw2W1B1F7aqYC8P+9hxLSo98wPjPhmDuCDDxa34e49+ZvG48fLRzVO1F6KX7+9KhkeflcfwMgp7Wowta+/7j/nw+P995cPbJzavNQrka1joK+FvYhfZr3nfOtwYWdqv/hF/znfOlzYCaJ26QZHtSv9U1u10I4fonZqXTvBTsOkJIjaJVFbIFFbIFF7M6L2Uq8+tg7dRVNzAaFALiDcjKi9tOuymAI6AMtipbEsdjNq81LMUntVMjA+/3z5KCal2atAP/xh/5kfGJq9OqL2LffuLV99u3UcH7sCdQjn52veln7t8BKGw4iy/93f7T/5m0ZMae2Ujqh9y+vXixfmbk3br74adWMw9sILcwsRpd6tiUXx//mfv/Xkrx3vvbe8DQJB1PZF2sbctlc0V8dqMru6c4Lp7dQibQfmtjGflbNTiyLv3c1g+DYI3/mOnH2LqF2ju4ni9cB99mwRxFfFH01vDyN2ysm1myjGH+OTnvlJXZ3M9ur/66/H3kQRUTskCuvs17cGH2B6e0ixL7pDWl/XAVyfzK4V39YNM9lNRO1+mN4eUhe1TGpgMssNKNh9Mr09DFE7tZGTWcZTsHtmensAonY6JrMTUbCTML2dlKidiMnsdBTsVExvpyNq985kdmoKdlqmt1MQtftlMnsACnZyprd7J2r3xWT2YBTsgZje7pGo3QuT2UNSsIdjersvovYdmcwenoI9NNPbdydq34XJ7CwU7AxMb9+RqL0Zk9kZKdjZmN7emKi9AZPZeSnYOZne3oyo3YnJbAkU7PxMb3clasczmS2Egi2C6e1ORO0YJrNFUbAFMb0dSdRuZTJbGgVbFtPbMUTtAJPZMinYEpneDhO1m5jMFkvBFsr0doCovc5ktnAKtmimt2uJ2h6T2fIp2NKZ3l4naldMZrNQsDmY3l4lajsms4ko2DRMb1dErclsOqI2GdPb0HjUmsxmJGrzMb1tNmpNZvMStVm1PL1tM2pNZlMTtYk1O71tLWpNZisgatNrcHrbVNSazNZB1NagteltI1FrMlsTUVuPdqa3LUStyWxlRG1VGpne1h21JrNVErUVqn56W3HUmszWStTWqe7pbZVRazJbN1Fbs1qnt/VFrcls9URt5aqc3tYUtSazjRC1TahseltN1JrMtkPUtmLM9Pb8/OLsbHH8x5EfH8QfS9NtYRe1JW9hPIHxNA5soclsa0RtWzZNb+PIf/ZsGWFXx6NHpQTBpi188qSULYzNiI3pbV6M2Oze7zaT2QaJ2uZcn96+fHlxdHQZDVfH7duL//Zy+fBiC69u1fUR3zCv4S2Mp7fbQpPZZonaRq2mtz/72WUiDIwZ03ZrznZjxrQduYUxvTWZbZaobVfMqj799K0sGB5nZ8sHHlJMAzfNuK+P3nn6YcQP7W3GwHjwwGS2UaK2ac+f97Ng07h9e3Hd9vBOTvpbMjBi2nh4a68gbxrxz6FNorZpx8f9LBgeh582jp/SduPAPQnx43obMDzin0ObRG27djrz7caBryHEj+ttwNZR/ha6gNAmUduuG8SE8e7jwL8MKISobZeonWWI2jaJ2naVfwEhzrV7G7B1HHgLb/DrygWENonapt271w+C4XH4F8LutCw2y6LTnTv9zRgYx8fLR9EaUdu07oUMI8csrVQ7beEsrVQ7taN58UKzRG3TYpY6cmIbE8ZZXiAQWziyI22uLYwfOnLqHf+Qw58WUAhR27rXr0edAs/4steRV2xfvVp+/+HFj+5tzPURT7KrtC0TtSwiYGBuG1O2GVOsE1s4MLeNL82+hbEBA1t4966cbZ2oZSFObF+86AduhOzJSSnnvGu3MNItPlnUFvYCNza4nC1kRqKWt7x5s2hgilHsLGzVozbLldkx4qnrnsNit5DDE7Xk00UtJKJgyUfUko6CJR9RSzoKlnxELekoWPIRtaSjYMlH1JKOgiUfUUs6CpZ8RC3pKFjyEbWko2DJR9SSjoIlH1FLOgqWfEQt6ShY8hG1pKNgyUfUko6CJR9RSzoKlnxELekoWPIRtaSjYMlH1JKOgiUfUUs6CpZ8RC3pKFjyEbWko2DJR9SSjoIlH1FLOgqWfEQt6ShY8hG1pKNgyUfUko6CJR9RSzoKlnxELekoWPIRtaSjYMlH1JKOgiUfUUs6CpZ8RC3pKFjyEbWko2DJR9SSjoIlH1FLOgqWfEQt6ShY8hG1pKNgyUfUko6CJR9RSzoKlnxELekoWPIRtaSjYMlH1JKOgiUfUUs6CpZ8RC3pKFjyEbWko2DJR9SSjoIlH1FLOgqWfEQt6ShY8hG1pKNgyUfUko6CJR9RSzoKlnxELekoWPIRtaSjYMlH1JKOgiUfUUs6CpZ8RC3pKFjyEbWko2DJR9SSjoIlH1FLOgqWfEQt6ShY8hG1pKNgyUfUko6CJR9RSzoKlnxELekoWPIRtaSjYMlH1JKOgiUfUUs6CpZ8RC3pKFjyEbWko2DJR9SSjoIlH1FLOgqWfEQt6ShY8hG1pKNgyUfUko6CJR9RSzoKlnxELekoWPIRtaSjYMlH1JKOgiUfUUs6CpZ8RC3pKFjyEbWko2DJR9SSjoIlH1FLOgqWfEQt6ShY8hG1pKNgyUfUko6CJR9RSzoKlnxELekoWPIRtaSjYMlH1JKOgiWT168vTk+XURsfxB8hBVFLDmdnFw8fLkP26vj448WXoHCilgRevOgnbG88f778TiiTqKV0qysGwyPiGIolaina69f9SB0YriRQLFFL0Z496+fppnH79sWTJ8tHQWlELUXr5enWcX6+fCAURdRSrrOzfpJuHa4hUCZRS7lELdUQtZRL1FINUUu5dmo/6IbXj1EmUUvR7t3rh+nAODpaPgpKI2op2tbXiV0dXsVAsUQtRTs/X0xsb9/up+r1cfeuTi/KJWop3evXixgdSNv40p07rtJSNFFLAhGjDx70E3Y1YtorZymcqCWNly/7gRt/jE9C+UQt+XQ5C4koWPIRtaSjYMlH1JKOgiUfUUs6CpZ8RC3pKFjyEbWko2DJR9SSjoIlH1FLOgqWfEQt6ShY8hG1pKNgyUfUko6CJR9RSzoKlnxELekoWPIRtaSjYMlH1JKOgiUfUUs6CpZ8RC3pKFjyEbWko2DJR9SSjoIlH1FLOgqWfEQt6ShY8hG1pKNgyUfUko6CJR9RSzoKlnxELekoWPIRtaSjYMlH1JKOgiUfUUs6CpZ8RC3pKFjyEbWko2DJR9SSjoIlH1FLOgqWfEQt6ShY8hG1pKNgyUfUko6CJR9RSzoKlnxELekoWPIRtaSjYMlH1JKOgiUfUUs6CpZ8RC3pKFjyEbWko2DJR9SSjoIlH1FLOgqWfEQt6ShY8hG1pKNgyUfUko6CJR9RSzoKlnxELekoWPIRtaSjYMlH1JKOgiUfUUs6CpZ8RC3pKFjyEbWko2DJR9SSjoIlH1FLOgqWfEQt6ShY8hG1pKNgyUfUko6CJR9RSzoKlnxELekoWPIRtaSjYMlH1JKOgiUfUUs6CpZ8RC3pKFjyEbWko2DJR9SSjoIlH1FLOgqWfEQt6ShY8hG1pKNgyUfUko6CJR9RSzoKlnxELekoWPIRtaSjYMlH1JKOgiUfUUs6CpZ8RC3pKFjyEbWko2DJR9SSjoIlH1FLOgqWfEQt6ShY8hG1pKNgyUfUko6CJR9RSzoKlnxELekoWPIRtaSjYMlH1JKOgiUfUUs6CpZ8RC3pKFjyEbWko2DJR9SSjoLl0qtXFy9eXDx9evH48eKD+OP5+fJLhei2sIvabgtL021hPIHxNJa5hcxC1LIQifDRR8sIuzqOjy9OT5ffM6+XL0vfwtiM2Jje5sWIzRa4iFouTk766dAbT57MPL199qy/Sb0R3zCvrVsYTzItE7WtW52PD48Zs+z58/7GrB0zZtnWnO1G/ENolqht2uvX/TgYGHEKf3hnZ/3NGBjxzYdX/hZSAlHbtJHTsW58/PHyUYf05MnF7dv9Ldk0Hj5cPuqQ4of2NmPTiH9I/HNok6htWi8Lto6YBR/S+Xl/A7aON2+Wjz2M+HG9Ddg6aJM9366drh5048Ar6Tudm3fjwGfo5W8hhRC17bpBTBjvPkRtm0Rtu0TtLEPUtknUtusGV0IPHBM3uBJ64KvJN7gIc+CryRRC1DbtwYN+EAyMo6Plow7p3r3+ZgyM+ObDW/satk1jli4OSiBqm/byZT8LBsaLF8tHHVL5WzjyNSDdmKU3mRKI2tY9etSPg+vj9u3FhHGu1+aOmXrHFn7yyTxbGD80fvSY5t/4h9AsUdu6Lil6odAbd+8e+hroVbGFWy8jzLuF8aNjA3qb1Btz/SagEKKWRQQ8edKPhtV4+HD+lZzYwoHZd3xp9i2MDRjeQjnbOFHL0tnZW7f4Oj5e5G9R1xa7LVwtQ8UHT5+W1TsVGxNP2tVbKcYGF7WFzEXUcqlrXSrk9q/ZvXq1eDLlLB1RyyXpsEfd7y0tB3RELZe6viVXFfclnsxZ+s8okKjl0tOnFx9+uPyYd/fZZ4s3GYMgarkkGvYrfnXdv7/8mMaJWi7FCa83Zdmj7oIMBIXAkvaDvbPMyIqoZUku7J0mBFZELUvaD6YQT6kmBIKoZUn7wRSsNNIRtSwJhSloQqAjalmKU13tB3unCYGOKmBB+8FELDbSEbUsSISJaEKgI2pZ0H4wnXhiNSEgalnQfjAd640EUcuCOJiOJgSCqGUhTnK1H0xEEwJBCaD9YFqWHAmiFlkwLU0IBFGL9oPJxdOrCaFxohbtB5Oz6oioRRBMThMCopbF6a32g0lpQsD+b532gwOw8IiobZ0UOABNCIja1mk/OIx4kjUhtEzUtk77wWFYe2ycqG2dCDgMTQiNE7WtixNb7QcHoAmhcXZ+07QfHIzlx8aJ2qY5/g9GE0LjRG3TtB8cUjzVmhCaJWqbpv3gkKxAtkzUNs3Bf0iaEFomapsWp7TaDw5GE0LL7Pl2aT84MIuQLRO17XLkH5gmhJaJ2nZpPzi8eMI1IbRJ1LZL+8HhWYdslqhtl8P+8DQhNEvUtitOZrUfHJgmhGbZ7Y3SfjALS5HNErWNcszPQhNCs0Rto7QfzCWedk0IDRK1jdJ+MBerkW0StY1ywM9FE0KbRG2j4jRW+8EsNCG0yT5vkfaDGVmQbJOobZGjfUaaENokaluk/WBe8eRrQmiNqG2R9oN5WZNskKhtkUN9XpoQGiRqWxQnsNoPZqQJoUF2eHO0H8zOsmSDRG1zHOez04TQIFHbHO0HJYhdoAmhKaK2OdoPSmBlsjWitjkO8hJoQmiNqG1OnLpqP5idJoTW2Ntt0X5QCIuTrRG1bXGEF0ITQmtEbVu0H5QjdoQmhHaI2rZoPyiH9cmmiNq2OLzLoQmhKaK2LXHSqv2gEJoQmmJXN0T7QVEsUTZF1DbEsV0UTQhNEbUN0X5QmtgdmhAaIWobov2gNFYp2yFqG+LALo0mhHaI2obE6ar2g6JoQmiH/dwK7QcFslDZDlHbCkd1gTQhtEPUtkL7QZlip2hCaIGobYX2gzJZq2yEqG2FQ7pMmhAaIWpbESeq2g8KpAmhEXZyE7QfFMtyZSNEbRMcz8XShNAIUdsE7Qcli12jCaF6orYJ2g9KZsWyBaK2CQ7mkmlCaIGobUKcomo/KJYmhBbYw/XTflA4i5YtELX1cyQXThNCC0Rt/bQflC92kCaEuona+mk/KJ91y+qJ2vo5jMunCaF6orZ+cXKq/aBwmhCqZ/dWTvtBCpYuqydqK+cYTkETQvVEbeW0H2QRu0kTQsVEbeW0H2Rh9bJuorZyDuAsNCHUTdRWLk5LtR+koAmhbvZtzbQfJGIBs26itmaO3kQ0IdRN1NZM+0EusbM0IdRK1NZM+0Eu1jArJmpr5tDNRRNCxURtzeKEVPtBIpoQKmbHVkv7QTqWMSsmaqvluE1HE0LFRG21tB9kFLtME0KVRG21tB9kZCWzVqK2Wg7ajDQh1ErUVitORbUfpKMJoVb2ap20HyRlMbNWorZOjtikNCHUStTWSftBXrHjNCHUR9TWSftBXtYzqyRq6+RwzUsTQpVEbZ3iJFT7QVKaEKpkl1ZI+0FqljSrJGor5FhNTRNClURthbQfZBe7TxNCZURthbQfZGdVsz6itkIO1Ow0IdRH1FYoTj+1H6SmCaE+9mdttB9UwMJmfURtbRylFdCEUB9RWxvtB3WInagJoSaitjbaD+pgbbMyorY2DtE6aEKojKitTZx4aj+ogCaEytiZVdF+UA3Lm5URtVVxfFZDE0JlRG1VtB/UJHalJoRqiNqqaD+oiRXOmojaqjg4a6IJoSaitipxyqn9oBqaEGpiT9ZD+0FlLHLWRNTWw5FZGU0INRG19dB+UJ/YoZoQ6iBq66H9oD7WOashauvhsKyPJoRqiNp6xMmm9oPKaEKoht1YCe0HVbLUWQ1RWwnHZJU0IVRD1FZC+0GtYrdqQqiAqK2E9oNaWe2sg6ithAOyVpoQ6iBqKxGnmdoPqqQJoQ72YQ20H1TMgmcdRG1W5+eLbH30aHHp4I//eHE0/vSnF2/eLL9KHWKHfvXVYuf+0R8tdnTs7tjp9nJGojal7qRy7Xj2TB9CDWInnpz0d+5q6ElIR9TmE2HaO/B645NPpG1usftiJ/Z2a298+qm9nImoTWZgpnN1PHiw/H4yihjt7dC148mT5fdTPlGbydlZ/2AbGM4xk3r5sr8rB4blsixEbSYxi7l9u3+wbRrHx8tHkcu9e/1dOTAePlw+isKJ2kx6h9nWYcqTTte3t9NwxTYFUZvGDQ5CnbbpdF20Ow2/UFMQtWnsdKG2Gy7XpjPQxrdpiNoURG0aZrUtMKutlajNpHeMbR0OwnRcq62VqM1EB0ILdupA0FqbhajNZKfLtS7UJqWvtkqiNpnnz/sH29rh1WKpjXy12LNny++nfKI2H/dAqF7svvhl2dutvfHokb2ciahN6cWLizt3+sdeN9zZqw6xEwfOYFwdSkfUZhWH4unp4qj70Y+WdzKNw8+dTCsTO3R1V+I//MPF7o4/+lWakahNzJsvNMXbMaQmahNz7DWl+8368uXyj+QiahPrXsTpdLIdsbtdpU1K1Cb29OnFhx8uP6YF3oI+L1GbmAOvNfHL9f795cfkImoTi9PJ58+XH9OC7pIRGdlvWWk/aJCF0LxEbVaOugZpQshL1Gal/aBNsdM1IWQkarPSftAma6FJidqsHHJt0oSQlKjNKk4ktR80SBNCUnZaStoPmmU5NClRm5LjrVmaEJIStSlpP2hZ7HpNCOmI2pS0H7TMimhGojYlB1vLNCFkJGpTilNI7QfN0oSQkT2Wj/aDxlkUzUjU5uNIa5wmhIxEbT7aD4gC0ISQi6jNR/sB1kXTEbX5OMzQhJCOqM0nTh61HzROE0I6dlcy2g8IlkbTEbXJOMYImhDSEbXJaD+gE2WgCSERUZuM9gM6VkdzEbXJOMDoaELIRdQmE6eN2g8ImhBysa8y0X7AigXSXERtJo4uVjQh5CJqM9F+wFVRDJoQshC1mWg/4CprpImI2kwcWlylCSERUZtJnDBqP2BFE0IidlQa2g/osUyaiKhNw3FFjyaERERtGtoPuC5KQhNCCqI2De0HXGelNAtRm4aDius0IWQhatOIU0XtB/RoQsjCXspB+wFrWSzNQtTm4IhiLU0IWYjaHLQfsEkUhiaE8onaHLQfsIn10hREbQ4OJzbRhJCCqM0hThK1H7CWJoQU7KIEtB8wwJJpCqI2AccSAzQhpCBqE9B+wLAoD00IhRO1CWg/YJhV0/KJ2gQcSAzThFA+UZtAnB5qP2CAJoTy2T+l037AVhZOyydqS+coYitNCOUTtaXTfsAYUSSaEEomakun/YAxrJ0WTtSWziHEGJoQCidqSxcnhtoP2EoTQuHsnKJpP2Aky6eFE7VFc/wwkiaEwonaomk/YLwoFU0IxRK1RdN+wHhWUEsmaovm4GE8TQglE7VFi1NC7QeMpAmhZPZMubQfsBOLqCUTteVy5LATTQglE7Xl0n7ArqJgNCGUSdSWS/sBu7KOWixRWy6HDbvShFAsUVuuOBnUfsBONCEUy24plPYDbsBSarFEbaEcM9yAJoRiidpCaT/gZqJsNCEUSNQWSvsBN2M1tUyitlAOGG5GE0KZRG2h4jRQ+wE3oAmhTPZJibQfcGMWVMskakvkaOHGNCGUSdSWSPsB7yKKRxNCaURtibQf8C6sqRZI1JbIocK70IRQIFFbojgB1H7AjWlCKJAdUhztB7wjy6oFErXFcZzwjjQhFEjUFkf7Ae8uSkgTQlFEbXG0H/DurKyWRtQWx0HCu9OEUBpRW5w49dN+wDvShFAae6Ms2g/YC4urpRG1ZXGEsBeaEEojasui/YB9iULShFAOUVsW7Qfsi/XVoojasjg82BdNCEURtWWJkz7tB+yFJoSi2BUF0X7AHlliLYqoLYhjgz3ShFAUUVsQ7QfsV5STJoRCiNqCaD9gv6yylkPUFsSBwX5pQiiHqC1InO5pP2CPNCGUw34ohfYD9s5CazlEbSkcFeydJoRyiNpSaD9gClFUmhBKIGpLof2AKVhrLYSoLYVDgiloQiiEqC1FnOhpP2DvNCEUwk4ogvYDJmK5tRCitgiOByaiCaEQorYI2g+YTpSWJoTZidoiaD9gOlZcSyBqi+BgYDqaEEogaosQp3jaD5iIJoQS2APz037ApCy6lkDUzs+RwKQ0IZRA1M5P+wFTiwLThDAvUTs/7QdMzbrr7ETt/BwGTE0TwuxE7fzi5E77AZPShDA7T//MtB9wAJZeZydqZ+YY4AA0IcxO1M5M+wGHEWWmCWFGonZm2g84DKuv8xK1M3MAcBiaEOYlamcWp3XaDzgATQjz8tzPSfsBB2MBdl6idk6qn4PRhDAvUTsn7QccUhSbJoS5iNo5aT/gkKzBzkjUzknpc0iaEGYkaucUJ3TaDzgYTQgz8sTPRvsBB2YZdkaidjbqngPThDAjUTsb7QccXpScJoRZiNrZaD/g8KzEzkXUzkbRc3iaEOYiamcTp3LaDzgwTQhz8azPQ/sBs7AYOxdROw8Vzyw0IcxF1M5D+wFzicLThHB4onYe2g+Yi/XYWYjaeSh35qIJYRaidh5xEqf9gFloQpiFp3wG2g+YkSXZWYjaA4nKPjm5+OijRZV34+FDC8EcWpTcn/3ZZREeHy/KUuwegKid3Pn5xZMnl8XdGw8eLCa5MLUosyi2XvnFuH178d8oUf0wkxK104ry/eSTtyq7N6LQ79yRtkwrCuzoaJmqm0YUqrSdjqid1qNH/YJeO+I8TpUzkSitu3f7Jbd2RLkyEVE7oW79YeQ4OVk+CvarazkYOawfTETUTmjgEu3aYWLLFI6O+pU2MB48WD6K/RK1E+oV8dYRs2DYr7OzfpltHX7lT0HUTqVrnt1peGU6e3d62i+zrUPv1xRE7VRuMJsQtezdThdquyFqpyBqp/LmTb+Ctw6vH2PvXr7sl9nWofVwCqJ2QsfH/SIeHkqcvdv1QtbR0fKB7JeondDJSb+OB8a9e8tHwX59/HG/2AaGpsOJiNoJvXmzQ5+NfkYmslN/dxQtUxC10/rlL/ulvHZ4lQ6TevasX3Jrx1dfLb+fvRO1E3r9evFWCz/4Qb+geyNyVicjk4oC2/qCmt/5nUW5WjCYiKidSpezXe2ena2/XnZ8rMGLwzk9Xb9UG8X56tVbFcveidpJrK3a+DiC9fnzxTuOxAdeG8YsovCi/E5OFiM+6JWotJ2IqN0/9UpeqncionbPVCrZqeEpiNp9UqPUQSXvnajdG9VJTdTzfonaHUTNnZ4uVhLiv71bcqhL6rOpqqP4Nx0IbCJqR4mSuvpmt904OlpU2/m5nKVaV2s7Sj0K/nq7mJ7FMUTtFlFen37ar62r4/79xRs3yVlq1aXt7/3exZ/8Sb/4r44HD7wSZ4ioHRKls/b9nK+O3/iNi9/6rYu//dvlQ6A+Ud7f/W6/8q8P77k7QNQOef68X0ybhpsYULHx75LnxmCbiNqNdr23t/UBqvR6xzveujfYWqJ2o9Md35TJ73OqNP7crhuWyNYStRs9fdqvoeHxxRfLB0JNHj7sl/rwcDFtLVG70a4VFgPq89ln/TofHvH9XCceNopfzr0aGh7Hx8sHQk1E7V6I2o1OdnlnsBgxC4b67DrnePp0+UCuErUb7fquzs+fLx8INdl1fTi+n+tE7Ubn5+tvWb9p6HGhSjt1PR4deRXDeqJ2yPjf56a0VOzFi37Bbxo6vTYRtVuMeavRTz9dfjPUaswV2zhY2ETUbjfcwh3l5YyJFnQLxbdvv1X/q884sRsmakc5O1tE6tHRWxX25IkX49KWKPjr90NwIIwhanfz+pt3Gne/RBrnQNiVqAWYnKgFmJyoBZicqAWYnKgFmJyoBZjYxcX/B1kiump59UoLAAAAAElFTkSuQmCC;" vertex="1" parent="1">
          <mxGeometry x="40" y="150" width="241.92" height="370" as="geometry" />
        </mxCell>
      </root>
    </mxGraphModel>
  </diagram>
</mxfile>
